<?xml version="1.0" standalone="no"?>
<!DOCTYPE svg PUBLIC "-//W3C//DTD SVG 20010904//EN"
 "http://www.w3.org/TR/2001/REC-SVG-20010904/DTD/svg10.dtd">
<svg version="1.0" xmlns="http://www.w3.org/2000/svg"
 width="700.000000pt" height="700.000000pt" viewBox="0 0 700.000000 700.000000"
 preserveAspectRatio="xMidYMid meet">
<g transform="translate(0.000000,700.000000) scale(0.100000,-0.100000)"
fill="#000000" stroke="none">
<path d="M4349 6559 c-74 -11 -134 -52 -165 -112 -13 -24 -76 -215 -89 -267
-2 -8 -45 -148 -95 -310 -51 -162 -96 -311 -102 -330 -9 -32 -165 -538 -259
-842 -94 -307 -124 -404 -234 -763 -64 -209 -134 -436 -155 -505 -22 -69 -96
-309 -165 -535 -130 -423 -168 -547 -230 -745 -20 -63 -38 -122 -40 -130 -3
-14 -24 -81 -135 -440 -229 -740 -272 -888 -271 -933 2 -115 104 -209 226
-209 65 0 149 53 181 115 12 22 233 725 279 887 11 39 150 489 205 665 10 33
80 260 155 505 189 617 212 692 245 795 16 50 33 106 38 125 6 19 30 100 55
180 66 211 557 1805 724 2350 78 256 86 306 59 370 -35 83 -140 143 -227 129z"/>
<path d="M1909 5241 c-14 -5 -36 -14 -50 -21 -13 -7 -376 -364 -807 -794 -829
-826 -832 -829 -832 -920 0 -101 -35 -62 814 -914 843 -845 841 -842 935 -842
158 1 266 178 194 316 -10 19 -333 350 -718 734 l-699 699 699 700 c399 398
709 716 720 738 84 162 -80 357 -256 304z"/>
<path d="M4959 5236 c-19 -7 -45 -19 -57 -27 -82 -58 -112 -185 -66 -274 10
-19 334 -350 719 -735 l699 -700 -697 -697 c-384 -384 -707 -714 -719 -733
-27 -44 -30 -149 -6 -195 64 -120 215 -160 321 -86 23 17 391 380 818 808 562
563 781 789 793 817 24 57 20 123 -9 182 -36 71 -1570 1604 -1635 1633 -51 23
-109 26 -161 7z"/>
</g>
</svg>
